<?xml version="1.0" encoding="UTF-8"?>
<svg version="1.1" xmlns="http://www.w3.org/2000/svg" width="728" height="728">
<path d="M0 0 C240.24 0 480.48 0 728 0 C728 240.24 728 480.48 728 728 C487.76 728 247.52 728 0 728 C0 487.76 0 247.52 0 0 Z " fill="#FEFEFE" transform="translate(0,0)"/>
<path d="M0 0 C12.91253406 11.39892415 26.25704066 23.50062347 37 37 C37.4125 37.5151416 37.825 38.0302832 38.25 38.56103516 C46.31996874 48.72415203 53.1501455 59.42515717 59.63671875 70.65380859 C60.91381699 72.85168002 62.21677632 75.03136867 63.53125 77.20703125 C64.27140674 78.45017961 65.01103003 79.69364581 65.75 80.9375 C66.38421875 81.99839844 67.0184375 83.05929688 67.671875 84.15234375 C69.03379438 87.07245913 69.30389398 88.82664551 69 92 C64.21224481 87.53511847 60.37510404 82.46547865 56.4375 77.25 C55.73294678 76.32276123 55.02839355 75.39552246 54.30249023 74.44018555 C49.92650417 68.64967922 45.69492979 62.77847505 41.5625 56.8125 C37.13037158 50.42375985 32.34395115 44.65830122 27 39 C25.93347854 37.73253971 24.87087909 36.46176736 23.8125 35.1875 C15.08322506 25.20541245 4.80822842 16.62152717 -6 9 C-6.60038086 8.56977539 -7.20076172 8.13955078 -7.81933594 7.69628906 C-56.47237176 -27.11941813 -116.02611083 -38.26473308 -174.79296875 -29.29296875 C-199.48519092 -25.12542055 -224.45680073 -15.79499404 -246 -3 C-246.59490234 -2.64711914 -247.18980469 -2.29423828 -247.80273438 -1.93066406 C-260.35434101 5.56907701 -271.85435361 13.86105987 -282.609375 23.80078125 C-284.19907274 25.26319927 -285.81401619 26.69865402 -287.453125 28.10546875 C-325.32378129 60.79570508 -350.50855832 116.08234933 -354.18035889 165.42364502 C-355.03277402 178.2694606 -355.54318594 191.13492754 -356 204 C-357.65 204.33 -359.3 204.66 -361 205 C-364.35975139 199.96037292 -363.34643183 193.9734604 -363.3125 188.0625 C-363.31001251 187.3822879 -363.30752502 186.70207581 -363.30496216 186.00125122 C-363.23945862 174.43162522 -362.44066369 163.32682604 -360 152 C-359.75830078 150.87674316 -359.51660156 149.75348633 -359.26757812 148.59619141 C-356.1343638 134.35584499 -352.78397802 120.41297182 -347 107 C-346.70561035 106.31099609 -346.4112207 105.62199219 -346.10791016 104.91210938 C-344.6347533 101.47037047 -343.14090147 98.03900984 -341.61328125 94.62109375 C-340.56507349 92.26833687 -339.54506797 89.90273846 -338.55859375 87.5234375 C-336.8263343 83.60740235 -334.85870157 79.91030283 -332.75 76.1875 C-332.35449951 75.48681396 -331.95899902 74.78612793 -331.55151367 74.06420898 C-328.80860626 69.2675752 -325.86666691 64.69413259 -322.609375 60.2265625 C-321.00761055 58.01052916 -319.53482907 55.74098258 -318.0625 53.4375 C-315.40296507 49.42005438 -312.37628907 45.91940927 -309.12109375 42.375 C-306.88378443 39.86987281 -304.82454018 37.26600594 -302.75 34.625 C-297.7133006 28.4159654 -291.97796912 23.26994586 -286 18 C-285.23816406 17.28972656 -284.47632813 16.57945312 -283.69140625 15.84765625 C-278.53953675 11.07390561 -272.98503709 7.06179082 -267.171875 3.1484375 C-264.50355732 1.34107946 -261.90910812 -0.53033611 -259.3125 -2.4375 C-237.88981214 -17.42642608 -213.47545761 -26.50062688 -188.5625 -33.75 C-187.62422363 -34.03166016 -186.68594727 -34.31332031 -185.71923828 -34.60351562 C-168.77742317 -39.3797111 -151.66306425 -40.46385789 -134.14697266 -40.28125 C-131.07832874 -40.24951738 -128.01019967 -40.2402009 -124.94140625 -40.234375 C-122.96353541 -40.22522272 -120.98566974 -40.2148527 -119.0078125 -40.203125 C-117.65153244 -40.19675018 -117.65153244 -40.19675018 -116.26785278 -40.19024658 C-111.41400784 -40.13555376 -106.78730563 -39.81157313 -102 -39 C-102.80168143 -41.18791871 -102.80168143 -41.18791871 -104.95849609 -41.67016602 C-106.22814209 -41.95911743 -106.22814209 -41.95911743 -107.5234375 -42.25390625 C-108.46316406 -42.46853516 -109.40289062 -42.68316406 -110.37109375 -42.90429688 C-111.36238281 -43.12150391 -112.35367187 -43.33871094 -113.375 -43.5625 C-114.32761719 -43.78357422 -115.28023438 -44.00464844 -116.26171875 -44.23242188 C-138.95878925 -49.31545999 -165.02015913 -49.71664751 -187.83496094 -45.38330078 C-189.89161903 -45.01918788 -191.93159094 -44.75027636 -194.0078125 -44.52734375 C-202.2388467 -43.6423787 -209.77665756 -41.80211654 -217.63671875 -39.31640625 C-220.99009718 -38.26119716 -224.36275615 -37.43103995 -227.78515625 -36.62890625 C-234.02957574 -35.0895431 -239.83795007 -32.88640775 -245.75 -30.375 C-246.7905957 -29.93623535 -247.83119141 -29.4974707 -248.90332031 -29.04541016 C-262.1204702 -23.36428283 -274.24829643 -16.29532017 -286 -8 C-286.97324219 -7.31421875 -287.94648438 -6.6284375 -288.94921875 -5.921875 C-295.74690735 -0.9813327 -301.9059546 4.43221582 -307.9921875 10.203125 C-309.99945885 12.10089693 -312.05417915 13.89844893 -314.19140625 15.6484375 C-316.39086066 17.48998347 -318.22728475 19.19727939 -320.0625 21.375 C-322.32236841 24.04984424 -324.61252771 26.6784828 -326.984375 29.25390625 C-334.0052732 36.97166261 -339.64185179 44.79535518 -344.68359375 53.9296875 C-346.30347945 56.8627539 -348.07301673 59.61912693 -349.97265625 62.37890625 C-353.13933362 67.06388111 -355.61228152 71.9445292 -358 77.0625 C-358.64835815 78.44211914 -358.64835815 78.44211914 -359.30981445 79.84960938 C-362.65906955 87.07130345 -365.66232669 94.34775322 -368.26269531 101.87011719 C-368.78309546 103.3734188 -369.31190004 104.87382375 -369.84667969 106.37207031 C-387.64463078 156.2723236 -388.84285901 211.9982838 -369.83789062 261.79833984 C-369.08314093 263.78153704 -368.3578478 265.77254747 -367.640625 267.76953125 C-363.16871095 279.69901961 -357.0384638 290.80726105 -351 302 C-350.62584961 302.70608398 -350.25169922 303.41216797 -349.86621094 304.13964844 C-331.8372013 338.13569887 -302.22243941 366.24095623 -270.65234375 387.515625 C-267.80881469 389.43293484 -265.05811358 391.44446042 -262.3125 393.5 C-249.74259578 402.31167272 -235.32137775 408.64339145 -221 414 C-219.42815209 414.64656847 -217.85655825 415.29375481 -216.28515625 415.94140625 C-206.78873981 419.74909626 -196.86999178 422.35156288 -187 425 C-186.15115234 425.2278418 -185.30230469 425.45568359 -184.42773438 425.69042969 C-145.93150262 435.62239432 -101.42392812 430.63608262 -65.75 413.4375 C-64.66388428 412.91446289 -63.57776855 412.39142578 -62.45874023 411.85253906 C-50.21629742 405.81805653 -39.4484584 398.3316582 -29.015625 389.55859375 C-27 388 -27 388 -24.859375 387.03515625 C-22.85909493 386.15225523 -22.85909493 386.15225523 -22.0949707 384.16577148 C-20.88180112 381.76621131 -19.49990782 380.2297495 -17.62109375 378.3125 C-16.95150635 377.61962891 -16.28191895 376.92675781 -15.59204102 376.21289062 C-14.88104248 375.48263672 -14.17004395 374.75238281 -13.4375 374 C-8.65951272 369.0231288 -4.11129695 364.09050967 -0.0625 358.5 C6.63396227 349.27348337 14.02806059 342.9415667 23.66796875 337.04296875 C28.83488321 333.87497782 33.74653829 330.48977813 38.5625 326.8125 C41.8777889 324.29171572 45.18936815 321.84437605 48.66796875 319.5546875 C49.26601318 319.15789795 49.86405762 318.7611084 50.48022461 318.35229492 C52.17253115 317.23848688 53.87511019 316.14033393 55.578125 315.04296875 C56.37734375 314.36878906 57.1765625 313.69460938 58 313 C58 311.68 58 310.36 58 309 C54.03219597 307.99709493 50.06314509 307.0004373 46.08984375 306.01953125 C43.90574035 305.48001009 41.73432533 304.92622517 39.56640625 304.32421875 C28.0686162 301.29361413 14.63379121 300.07910505 4 306 C0.49668814 308.13761402 -2.75833467 310.48605546 -6 313 C-6.89332031 313.67804688 -7.78664063 314.35609375 -8.70703125 315.0546875 C-15.87588753 320.60316487 -15.87588753 320.60316487 -21 328 C-21.06950541 329.54023996 -21.08452357 331.08334988 -21.0625 332.625 C-21.04896484 333.85089844 -21.04896484 333.85089844 -21.03515625 335.1015625 C-21.01775391 336.04128906 -21.01775391 336.04128906 -21 337 C-20.113125 337.226875 -19.22625 337.45375 -18.3125 337.6875 C-13.48691112 339.59952578 -10.90087549 342.15730014 -8.625 346.8125 C-7.11750337 354.50073279 -9.28405615 359.3443942 -13.38671875 365.73828125 C-15.35386209 368.49609238 -17.44665198 370.77400429 -20 373 C-20.825 373.721875 -21.65 374.44375 -22.5 375.1875 C-28.03193653 379.19815398 -34.24719392 380.37014044 -41 380 C-46.95880134 378.12747164 -51.63694405 375.355978 -55 370 C-55.38849121 369.44320557 -55.77698242 368.88641113 -56.17724609 368.31274414 C-59.5751595 363.2766203 -61.20056691 358.69400756 -62.3125 352.75 C-62.47492188 351.9137207 -62.63734375 351.07744141 -62.8046875 350.21582031 C-66.27041406 331.36547144 -61.29898012 316.25190219 -51.28515625 300.26171875 C-49.8301754 298.13468693 -49.8301754 298.13468693 -50 295.9375 C-51.76734827 292.51326273 -54.79475167 290.77259508 -57.98046875 288.73046875 C-69.78733923 281.14481568 -78.41824075 273.25073996 -82.97265625 259.8984375 C-87.28331627 247.73680353 -93.90377453 236.70980155 -101 226 C-101.40573242 225.38092773 -101.81146484 224.76185547 -102.22949219 224.12402344 C-112.62696151 208.37840851 -125.2449699 195.10969265 -139.234375 182.51171875 C-142.01537547 179.98603612 -144.65798119 177.36613109 -147.28540039 174.68383789 C-149.024189 172.97624498 -150.82245599 171.38038868 -152.66796875 169.7890625 C-157.02049489 166.00089144 -161.2760414 162.11812814 -165.5 158.1875 C-166.22703125 157.52041016 -166.9540625 156.85332031 -167.703125 156.16601562 C-168.38890625 155.52728516 -169.0746875 154.88855469 -169.78125 154.23046875 C-170.40064453 153.65707764 -171.02003906 153.08368652 -171.65820312 152.49291992 C-173 151 -173 151 -173 149 C-174.0828125 148.6596875 -174.0828125 148.6596875 -175.1875 148.3125 C-177.91448792 147.03990564 -179.40282713 145.71908028 -181.42578125 143.54296875 C-183.4414828 141.56728113 -185.63905597 139.90927838 -187.875 138.1875 C-191.76081707 135.11552663 -195.02180674 131.96820723 -198.1796875 128.1640625 C-200.24345921 125.71056566 -202.42971068 123.39896548 -204.625 121.0625 C-213.59245972 111.21883048 -221.88582762 100.55645334 -228.53515625 89.00390625 C-230.17834052 86.75603017 -231.51077293 86.14096208 -234 85 C-234.48438175 93.17269613 -233.3239798 99.80023064 -230.625 107.5 C-230.27066895 108.53447266 -229.91633789 109.56894531 -229.55126953 110.63476562 C-225.14183769 123.04141604 -219.4317018 134.76397276 -211.375 145.20898438 C-209.68221079 147.4139385 -208.13454135 149.70791094 -206.5625 152 C-199.44428017 161.84962977 -190.60381232 170.45373826 -182 179 C-181.21238281 179.79921875 -180.42476562 180.5984375 -179.61328125 181.421875 C-178.85402344 182.19015625 -178.09476563 182.9584375 -177.3125 183.75 C-176.16201172 184.91789062 -176.16201172 184.91789062 -174.98828125 186.109375 C-173.1389301 188.05230615 -173.1389301 188.05230615 -171 189 C-171 189.66 -171 190.32 -171 191 C-170.18934082 191.32387695 -170.18934082 191.32387695 -169.36230469 191.65429688 C-166.1700516 193.47278582 -163.77027139 195.94423084 -161.203125 198.53125 C-160.65066101 199.08180054 -160.09819702 199.63235107 -159.5289917 200.19958496 C-158.35996572 201.36725156 -157.19345521 202.53744125 -156.02929688 203.70996094 C-154.27684674 205.47299118 -152.51415932 207.2252586 -150.75 208.9765625 C-131.6403 228.06054285 -131.6403 228.06054285 -130.5625 236.375 C-131.15242562 241.26295516 -132.4205146 242.65914696 -136 246 C-144.21422456 248.70094842 -153.63542621 243.34019105 -160.9375 239.8125 C-166.65528796 236.860764 -172.05811204 233.54437963 -177.38256836 229.93286133 C-180.20236419 228.03900582 -182.60588293 226.51325673 -186 226 C-185.86073934 233.65933629 -182.98446691 237.37961611 -178 243 C-176.95392578 244.20849609 -176.95392578 244.20849609 -175.88671875 245.44140625 C-173.6314787 248.00108368 -171.3279346 250.50633496 -169 253 C-168.26265625 253.80308594 -167.5253125 254.60617187 -166.765625 255.43359375 C-161.82637511 260.61317627 -156.57505541 264.92014153 -150.8125 269.125 C-137.66977487 278.74207408 -137.66977487 278.74207408 -134.75 286.1875 C-135 289 -135 289 -137 291.875 C-140 294 -140 294 -143.0625 294.6875 C-149.93433132 293.48765644 -156.28560984 290.20618068 -161.69140625 285.8125 C-164.38260951 283.69960945 -165.66480768 283.61883516 -169 284 C-168.35106486 296.65423518 -154.27648027 308.09763649 -145.625 316.3125 C-137.09463812 323.60236042 -126.79355837 328.41396136 -116.41772461 332.47875977 C-112.00142698 334.27815838 -109.0144769 336.29031292 -106 340 C-104.86930275 343.92768519 -105.67299883 347.30140659 -107.375 350.9375 C-109 353 -109 353 -111 354 C-113.87910588 354.23274209 -116.74146495 354.41972757 -119.625 354.5625 C-120.42679687 354.60568359 -121.22859375 354.64886719 -122.0546875 354.69335938 C-124.0362511 354.79951457 -126.01810271 354.90026855 -128 355 C-127.17514192 359.34109089 -125.46755437 360.44653852 -121.8125 362.9375 C-120.81992187 363.63359375 -119.82734375 364.3296875 -118.8046875 365.046875 C-117.87914062 365.69140625 -116.95359375 366.3359375 -116 367 C-112.14091751 369.81486017 -109.04404629 372.12778396 -108 377 C-108.07422086 381.15636842 -108.5060143 383.33620672 -111 386.6875 C-117.78202143 391.91530819 -125.95184731 394.03519919 -134.125 396.1875 C-135.07503906 396.44724609 -136.02507812 396.70699219 -137.00390625 396.97460938 C-163.68167168 404.1343148 -191.15158113 400.3922093 -216 389 C-216.66370605 388.69690918 -217.32741211 388.39381836 -218.01123047 388.08154297 C-232.42008832 381.4237503 -246.28053766 372.82969028 -256 360 C-258.74505463 358.62747269 -261.00327412 358.86770745 -264.0625 358.875 C-265.68865234 358.87113281 -265.68865234 358.87113281 -267.34765625 358.8671875 C-269.92243398 358.69881436 -269.92243398 358.69881436 -271 360 C-276.64223707 360.63450763 -279.4315222 358.03673378 -283.7578125 354.7421875 C-292.46070579 347.5830929 -300.74921609 339.26838105 -307.3984375 330.1640625 C-309.32771953 327.55717898 -311.41088297 325.10538978 -313.5 322.625 C-320.01335959 314.63483806 -324.97300847 306.44776168 -329.1875 297.0625 C-329.50855713 296.34763428 -329.82961426 295.63276855 -330.16040039 294.89624023 C-334.85964956 284.08833133 -337.70538622 273.5608895 -339.25 261.875 C-339.42273438 260.67746094 -339.59546875 259.47992188 -339.7734375 258.24609375 C-343.74707578 229.45298459 -335.10048827 202.04631094 -326 175 C-333.22026905 177.27811937 -336.72926656 183.76161629 -340.15966797 190.16455078 C-342.51544667 194.76850266 -342.51544667 194.76850266 -344.76660156 199.42407227 C-347.41015977 204.78868911 -347.41015977 204.78868911 -350.76953125 205.9921875 C-351.50558594 205.99476563 -352.24164063 205.99734375 -353 206 C-353.8298189 203.64174126 -354.13331261 202.39508572 -353.32250977 199.9921875 C-352.94924561 199.29351562 -352.57598145 198.59484375 -352.19140625 197.875 C-351.77810059 197.09165283 -351.36479492 196.30830566 -350.93896484 195.5012207 C-350.48473145 194.67581787 -350.03049805 193.85041504 -349.5625 193 C-349.10311035 192.15074951 -348.6437207 191.30149902 -348.17041016 190.42651367 C-343.11079285 181.19205442 -337.97939926 172.30273017 -330.15234375 165.109375 C-328.29155311 163.28573263 -326.62348069 161.42850534 -324.9296875 159.453125 C-320.69703676 154.57099005 -316.17765999 149.99156516 -311.60961914 145.42431641 C-310.16718144 143.97965004 -308.73298435 142.52710146 -307.29882812 141.07421875 C-306.38939453 140.16285156 -305.47996094 139.25148438 -304.54296875 138.3125 C-303.71821045 137.48363281 -302.89345215 136.65476562 -302.04370117 135.80078125 C-300 134 -300 134 -298 134 C-298.58060947 137.69052187 -299.59054853 140.43138859 -301.44140625 143.66796875 C-301.93866211 144.55145996 -302.43591797 145.43495117 -302.94824219 146.34521484 C-303.48094727 147.28316895 -304.01365234 148.22112305 -304.5625 149.1875 C-318.84116788 174.94236187 -331.16038541 204.15551778 -332 234 C-332.04253906 235.51207031 -332.04253906 235.51207031 -332.0859375 237.0546875 C-332.12733166 240.37449938 -332.07997918 243.68086388 -332 247 C-331.98743164 247.67691895 -331.97486328 248.35383789 -331.96191406 249.05126953 C-331.16243795 285.32953753 -313.88417036 314.53712801 -289 340 C-286.41011543 342.43540022 -283.74955523 344.74757418 -281 347 C-280.071875 347.78375 -279.14375 348.5675 -278.1875 349.375 C-276.00778171 351.17066872 -276.00778171 351.17066872 -273 352 C-274.57429845 346.1309049 -276.55920835 340.59350112 -278.9375 335 C-281.30979823 329.29322295 -283.02182796 323.5921397 -284.375 317.5625 C-284.54249756 316.82966797 -284.70999512 316.09683594 -284.88256836 315.34179688 C-285.90832674 310.47648734 -286.14568822 305.97020981 -286 301 C-284.68 301 -283.36 301 -282 301 C-280.11454292 305.22035451 -278.53541336 309.37377754 -277.16357422 313.7956543 C-272.12424365 329.58666917 -262.4457723 342.42860095 -251.33886719 354.53076172 C-250.18165587 355.80065554 -249.05992419 357.1027125 -247.9453125 358.41015625 C-230.33999665 377.88913021 -200.77067479 389.47107362 -174.8671875 390.91015625 C-173.92101562 390.93980469 -172.97484375 390.96945312 -172 391 C-171.01257813 391.03996094 -170.02515625 391.07992188 -169.0078125 391.12109375 C-153.61676061 391.44733799 -139.45168932 389.18694944 -125 384 C-124.08476562 383.67257812 -123.16953125 383.34515625 -122.2265625 383.0078125 C-120.47531639 382.36261656 -118.73531428 381.68689524 -117 381 C-117.30327546 377.87147423 -117.53071602 376.41334913 -119.93359375 374.296875 C-120.75988281 373.78640625 -121.58617187 373.2759375 -122.4375 372.75 C-135.39316027 364.19889564 -145.34504702 352.4556154 -155.015625 340.453125 C-156.66452518 338.41472084 -158.34866466 336.42092742 -160.0625 334.4375 C-162 332 -162 332 -162 330 C-157.71651117 331.2787474 -154.26904114 332.9250877 -150.5 335.3125 C-139.78435136 341.65711768 -129.45170253 344.7724772 -117 345 C-118.2398491 341.28045271 -119.12610273 341.11368798 -122.5234375 339.36328125 C-123.45655762 338.87311523 -124.38967773 338.38294922 -125.35107422 337.87792969 C-126.34896973 337.36133789 -127.34686523 336.84474609 -128.375 336.3125 C-159.30199782 319.77805346 -178.30425613 295.44149747 -188.68066406 262.07470703 C-189.61998361 258.86494212 -190 256.387757 -190 253 C-185.20254952 253.84751534 -183.05824688 256.96739417 -180 260.5 C-170.43387791 271.12288406 -159.94396688 278.04500932 -147 284 C-150.10974281 280.10030464 -153.10958568 276.89493846 -157.0625 273.8125 C-163.31249229 268.81081926 -169.16557316 263.47292777 -175 258 C-175.64710938 257.41863281 -176.29421875 256.83726562 -176.9609375 256.23828125 C-191.53744123 242.65407472 -202.191112 221.99562933 -203.09277344 201.93603516 C-203.07084162 195.58677493 -202.16008343 189.96254433 -200 184 C-199.01 184 -198.02 184 -197 184 C-195.70606592 186.58786815 -195.81671846 188.67169847 -195.6875 191.5625 C-194.85812002 201.93593909 -190.28400475 210.38254275 -182.50390625 217.33740234 C-172.97551681 225.33284207 -162.51598039 230.48076453 -151 235 C-150.28312012 235.29132813 -149.56624023 235.58265625 -148.82763672 235.8828125 C-145.29685927 237.27978292 -142.84682977 238 -139 238 C-139.53794793 234.27617811 -140.37445096 232.07011471 -142.7734375 229.1796875 C-143.34562012 228.48472168 -143.91780273 227.78975586 -144.50732422 227.07373047 C-145.12365723 226.34814941 -145.73999023 225.62256836 -146.375 224.875 C-147.0055127 224.12234863 -147.63602539 223.36969727 -148.28564453 222.59423828 C-154.61846025 215.11930828 -161.31587392 208.16384428 -168.74609375 201.765625 C-173.44206071 197.68011167 -177.8118457 193.29833536 -182.1875 188.875 C-182.96802734 188.08996094 -183.74855469 187.30492187 -184.55273438 186.49609375 C-186.05263961 184.98728322 -187.55139667 183.47733014 -189.04882812 181.96606445 C-190.60330927 180.39971853 -192.16557284 178.84109711 -193.73046875 177.28515625 C-220.65756798 150.17267251 -239.62903895 118.52544735 -244 80 C-244.11085938 79.04351562 -244.22171875 78.08703125 -244.3359375 77.1015625 C-245.75128326 62.83334716 -247.0647582 44.54719876 -242 31 C-241.34 31 -240.68 31 -240 31 C-238.32183204 36.37157179 -237.39811089 41.62177338 -236.625 47.1875 C-235.47321515 54.80341325 -233.95968877 61.85121328 -231 69 C-230.74653809 69.6202002 -230.49307617 70.24040039 -230.23193359 70.87939453 C-218.4391555 99.21340035 -195.95280112 122.24104332 -173 142 C-171.37103946 143.45390807 -169.74541821 144.91157732 -168.125 146.375 C-167.28195312 147.13554687 -166.43890625 147.89609375 -165.5703125 148.6796875 C-164.72210938 149.44539062 -163.87390625 150.21109375 -163 151 C-161.33359149 152.50028679 -159.66692647 154.00028872 -158 155.5 C-157.17113281 156.24636719 -156.34226562 156.99273437 -155.48828125 157.76171875 C-153.86223726 159.22439255 -152.23469538 160.68540333 -150.60546875 162.14453125 C-145.2779774 166.92119959 -140.00446825 171.75198384 -134.76000977 176.61938477 C-131.59370275 179.55191552 -128.38598111 182.42233495 -125.125 185.25 C-121.74102191 188.24092074 -118.75919534 191.39176581 -115.8515625 194.84375 C-114.55194424 196.3572295 -113.20888166 197.83395868 -111.8359375 199.28125 C-94.99449349 217.05528211 -82.46530616 237.80226444 -73.34765625 260.4921875 C-68.60952244 272.07609133 -59.30343823 278.47644255 -49 285 C-48.29166016 285.45004395 -47.58332031 285.90008789 -46.85351562 286.36376953 C-42.25592226 289.27577873 -37.63590195 292.14942614 -33 295 C-33.2578125 297.359375 -33.2578125 297.359375 -34 300 C-35.7421875 301.328125 -35.7421875 301.328125 -37.875 302.25 C-38.57367188 302.56453125 -39.27234375 302.8790625 -39.9921875 303.203125 C-41.64058182 303.85735154 -43.31753319 304.43917773 -45 305 C-46.07962178 306.74975317 -46.07962178 306.74975317 -47 309 C-47.72896484 310.423125 -47.72896484 310.423125 -48.47265625 311.875 C-48.99730469 312.90625 -49.52195312 313.9375 -50.0625 315 C-50.85333984 316.546875 -50.85333984 316.546875 -51.66015625 318.125 C-56.79098677 329.13459551 -55.57907277 347.3110837 -52.05078125 358.6484375 C-49.62315113 364.08127517 -46.65491288 368.71607402 -41 371 C-35.03886948 371.68782275 -30.82371826 370.39551933 -26 367 C-21.19352168 362.48568016 -17.37700753 358.05283098 -16.75 351.3125 C-16.77654873 348.805445 -16.77654873 348.805445 -19 347 C-24.77767958 346.30514565 -24.77767958 346.30514565 -29.6875 349 C-32.01644319 352.02133171 -33.9508775 355.08867358 -35.7890625 358.42578125 C-36.18867188 358.94527344 -36.58828125 359.46476562 -37 360 C-37.99 360 -38.98 360 -40 360 C-38.80859934 352.9707361 -36.39828719 347.20801665 -33.2421875 340.8203125 C-31.79846079 338.05604253 -31.79846079 338.05604253 -32 335 C-33.65 334.34 -35.3 333.68 -37 333 C-36.42951217 329.22608513 -34.86225128 327.47652239 -32.203125 324.8046875 C-31.41583008 324.01094727 -30.62853516 323.21720703 -29.81738281 322.39941406 C-28.54652832 321.1498291 -28.54652832 321.1498291 -27.25 319.875 C-26.3847168 319.02131836 -25.51943359 318.16763672 -24.62792969 317.28808594 C-11.89570367 304.87759584 3.22719081 291.58641467 22.03857422 291.78613281 C27.8211362 292.2037358 33.41837132 293.60293312 39.0625 294.875 C59.44470307 299.28036887 79.20972056 300.4780683 100 301 C100.33 302.65 100.66 304.3 101 306 C100.05382812 306.1959375 99.10765625 306.391875 98.1328125 306.59375 C81.20347503 310.32522922 66.976379 317.30151336 53.03710938 327.51171875 C49.4499759 330.13242413 45.81613577 332.68723829 42.1875 335.25 C41.47263428 335.75708496 40.75776855 336.26416992 40.02124023 336.78662109 C33.73779765 341.22842787 27.34776187 345.53723123 20.6484375 349.33203125 C14.76710171 352.83860087 11.37198213 357.14519222 7.41015625 362.68359375 C-12.99601368 391.14814424 -39.29918573 411.64703711 -71 426 C-71.75877441 426.34530762 -72.51754883 426.69061523 -73.29931641 427.04638672 C-110.03239027 443.3293814 -152.79320776 443.11080552 -191 433 C-191.9374707 432.7618457 -192.87494141 432.52369141 -193.84082031 432.27832031 C-226.25335654 423.97500731 -256.32277856 409.12936278 -283 389 C-283.61665527 388.53883789 -284.23331055 388.07767578 -284.86865234 387.60253906 C-301.9547109 374.75951079 -318.5281494 359.61833725 -332 343 C-332.82628906 341.989375 -333.65257812 340.97875 -334.50390625 339.9375 C-355.65178557 313.75779364 -372.85494195 282.47610858 -382 250 C-382.36303223 248.72382812 -382.36303223 248.72382812 -382.73339844 247.421875 C-392.47711929 212.54200405 -394.67841126 175.53484401 -387 140 C-386.76925781 138.92024902 -386.53851563 137.84049805 -386.30078125 136.72802734 C-379.09096666 104.09789424 -365.82854527 71.07230675 -346 44 C-345.27554688 42.98550781 -344.55109375 41.97101563 -343.8046875 40.92578125 C-329.58903625 21.43658195 -312.72271132 2.99748359 -293 -11 C-292.40654785 -11.4218457 -291.8130957 -11.84369141 -291.20166016 -12.27832031 C-261.96757944 -32.82370612 -230.74111171 -44.57716949 -196 -52 C-194.61433838 -52.29825684 -194.61433838 -52.29825684 -193.20068359 -52.60253906 C-127.94973388 -66.20542512 -50.16838013 -43.34785823 0 0 Z " fill="#020202" transform="translate(518,166)"/>
</svg>
